<svg width="75" height="93" fill="none" xmlns="http://www.w3.org/2000/svg"><path d="M42.792 36.827c0 1.819-.454 4.092-1.361 6.365-.907 2.274-2.268 4.092-3.63 6.365-1.36 2.274-3.175 4.092-4.99 5.456l-4.99 5.002-3.175 2.273v.455l3.63-.91h9.526l-1.361 5.91H15.573l.908-3.636c.907-.91 2.268-2.274 3.629-3.183l4.083-4.092 4.536-4.547c1.36-1.363 2.722-3.182 3.63-4.546.906-1.364 1.814-3.183 2.72-4.547.908-1.364.908-2.728.908-4.092 0-1.364-.453-2.273-.907-2.727-.454-.91-1.815-1.364-3.63-1.364-.906 0-2.267.454-3.628.909-1.361.455-2.268 1.364-3.63 2.273l-1.814-5.001c1.815-1.364 3.63-2.273 5.444-2.728 1.814-.455 3.629-.91 6.35-.91 2.723 0 4.537.91 6.352 2.274 1.814.455 2.268 2.728 2.268 5.001zm29.486 20.005h-5.897l-2.268 10.911h-6.351l2.268-10.911H44.606l.908-4.092 21.32-23.642h5.444l-4.536 22.278h5.897l-1.36 5.456zm-9.073-14.095l1.361-4.546-2.722 4.092-6.804 7.274-3.175 2.273 3.175-.454h5.897l2.268-8.639z" fill="#A6ABBD"/><path d="M75 17.277l-1.814.455-5.444 1.364-15.424 3.182 2.722-9.093C33.719 7.275 11.49 19.55 5.14 40.92c-6.805 21.368 4.536 44.101 25.404 51.83C8.315 85.02-4.386 60.924 2.872 37.736 10.13 15.005 34.172 1.82 56.855 8.639L59.123 0 75 17.277z" fill="#00C368"/></svg>