<svg width="75" height="93" viewBox="0 0 75 93" fill="none" xmlns="http://www.w3.org/2000/svg">
<path d="M42.7918 36.8271C42.7918 38.6458 42.3381 40.919 41.4309 43.1923C40.5236 45.4656 39.1627 47.2842 37.8018 49.5575C36.4409 51.8308 34.6263 53.6494 32.8117 55.0134C30.9972 56.832 29.6363 58.196 27.8217 60.0146L24.6463 62.2879V62.7426L28.2754 61.8332H37.8018L36.4408 67.7438H15.5735L16.4808 64.1065C17.3881 63.1972 18.749 61.8332 20.1099 60.9239C21.4708 59.56 22.8317 58.196 24.1926 56.832C25.5536 55.4681 27.3681 53.6494 28.729 52.2855C30.0899 50.9215 31.4508 49.1029 32.3581 47.7389C33.2654 46.3749 34.1727 44.5563 35.0799 43.1923C35.9872 41.8283 35.9872 40.4644 35.9872 39.1004C35.9872 37.7364 35.5336 36.8271 35.0799 36.3725C34.6263 35.4632 33.2654 35.0085 31.4508 35.0085C30.5436 35.0085 29.1827 35.4632 27.8217 35.9178C26.4608 36.3725 25.5536 37.2818 24.1926 38.1911L22.3781 33.1899C24.1926 31.8259 26.0072 30.9166 27.8217 30.4619C29.6363 30.0073 31.4508 29.5526 34.1727 29.5526C36.8945 29.5526 38.709 30.4619 40.5236 31.8259C42.3381 32.2806 42.7918 34.5538 42.7918 36.8271Z" fill="#A6ABBD"/>
<path d="M72.2782 56.8317H66.3809L64.1127 67.7435H57.7618L60.03 56.8317H44.6063L45.5136 52.7398L66.8345 29.0977H72.2782L67.7418 51.3758H73.6391L72.2782 56.8317ZM63.2054 42.7374L64.5664 38.1908L61.8445 42.2827L55.0399 49.5572L51.8645 51.8305L55.0399 51.3758H60.9372L63.2054 42.7374Z" fill="#A6ABBD"/>
<path d="M75 17.277L73.1855 17.7316L67.7418 19.0956L52.3181 22.2782L55.04 13.1851C33.719 7.27451 11.4908 19.5502 5.13982 40.9191C-1.66474 62.288 9.67619 85.0208 30.5435 92.75C8.31528 85.0208 -4.38657 60.924 2.87163 37.7365C10.1298 15.0037 34.1726 1.81863 56.8545 8.63848L59.1227 0L75 17.277Z" fill="#00C368"/>
</svg>
